<?xml version="1.0"?>
<svg xmlns="http://www.w3.org/2000/svg" height="512px" viewBox="0 -60 512.0005 512" width="512px" class=""><g><path d="m486.398438 42.667969h-324.265626l-34.132812-34.132813h-102.398438c-9.425781 0-17.066406 7.640625-17.066406 17.066406v324.265626h494.933594v-290.132813c0-9.425781-7.644531-17.066406-17.070312-17.066406zm0 0" fill="#e6e7e8" data-original="#E6E7E8" class="active-path" style="fill:#F7B22C" data-old_color="#e6e7e8"/><path d="m8.535156 366.933594c0 9.425781 7.640625 17.066406 17.066406 17.066406h460.796876c9.425781 0 17.070312-7.640625 17.070312-17.066406v-17.066406h-494.933594zm0 0" fill="#d1d3d4" data-original="#D1D3D4" class="" data-old_color="#d1d3d4" style="fill:#F7B22C"/><path d="m486.398438 34.132812h-320.730469l-31.625-31.625c-1.609375-1.59375-3.777344-2.4960932-6.042969-2.507812h-102.398438c-14.140624 0-25.601562 11.460938-25.601562 25.601562v341.332032c0 14.136718 11.460938 25.601562 25.601562 25.601562h460.796876c14.140624 0 25.601562-11.464844 25.601562-25.601562v-307.199219c0-14.140625-11.460938-25.601563-25.601562-25.601563zm-469.332032-8.53125c0-4.714843 3.820313-8.535156 8.535156-8.535156h98.867188l31.621094 31.625c1.609375 1.597656 3.777344 2.496094 6.042968 2.507813h324.265626c4.714843 0 8.535156 3.820312 8.535156 8.535156v281.601563h-477.867188zm477.867188 341.332032c0 4.710937-3.820313 8.535156-8.535156 8.535156h-460.796876c-4.714843 0-8.535156-3.824219-8.535156-8.535156v-8.535156h477.867188zm0 0" fill="#231f20" data-original="#231F20" class="" style="fill:#FFFFFF" data-old_color="#231f20"/></g> </svg>
